<?xml version="1.0" encoding="UTF-8" standalone="no"?>
<!-- Created by diasvg.py -->
<svg width="44.289cm" height="22.997cm" viewBox="0.157 0.079 44.446 23.075"
 xmlns="http://www.w3.org/2000/svg"
 xmlns:xlink="http://www.w3.org/1999/xlink">
<rect x="19.269" y="3.311" width="4.480" height="1.800" fill="#FFFFFF" stroke="none" stroke-width="0"/>
<rect x="19.269" y="3.311" width="4.480" height="1.800" fill="none" stroke="#000000" stroke-width="0.100" />
<text x="21.509" y="4.411"  fill="#000000" text-anchor="middle" font-size="0.80" font-family="monospace" font-style="normal" font-weight="400">
Zawodnik</text>
<rect x="27.700" y="9.100" width="2.940" height="1.800" fill="#FFFFFF" stroke="none" stroke-width="0"/>
<rect x="27.700" y="9.100" width="2.940" height="1.800" fill="none" stroke="#000000" stroke-width="0.100" />
<text x="29.170" y="10.200"  fill="#000000" text-anchor="middle" font-size="0.80" font-family="monospace" font-style="normal" font-weight="400">
Klub</text>
<rect x="27.187" y="18.980" width="4.095" height="1.800" fill="#FFFFFF" stroke="none" stroke-width="0"/>
<rect x="27.187" y="18.980" width="4.095" height="1.800" fill="none" stroke="#000000" stroke-width="0.100" />
<text x="29.234" y="20.080"  fill="#000000" text-anchor="middle" font-size="0.80" font-family="monospace" font-style="normal" font-weight="400">
Stadion</text>
<rect x="4.113" y="3.615" width="6.405" height="1.800" fill="#FFFFFF" stroke="none" stroke-width="0"/>
<rect x="4.113" y="3.615" width="6.405" height="1.800" fill="none" stroke="#000000" stroke-width="0.100" />
<text x="7.316" y="4.715"  fill="#000000" text-anchor="middle" font-size="0.80" font-family="monospace" font-style="normal" font-weight="400">
Sędzia Główny</text>
<rect x="11.094" y="9.260" width="2.940" height="1.800" fill="#FFFFFF" stroke="none" stroke-width="0"/>
<rect x="11.094" y="9.260" width="2.940" height="1.800" fill="none" stroke="#000000" stroke-width="0.100" />
<text x="12.564" y="10.360"  fill="#000000" text-anchor="middle" font-size="0.80" font-family="monospace" font-style="normal" font-weight="400">
Mecz</text>
<ellipse cx="25.534" cy="14.494" rx="1.385" ry="0.900" fill="#FFFFFF" stroke="none"  /><ellipse cx="25.534" cy="14.494" rx="1.385" ry="0.900" fill="none" stroke="#000000"  stroke-width="0.100" /><text x="25.534" y="14.694"  fill="#000000" text-anchor="middle" font-size="0.80" font-family="monospace" font-style="normal" font-weight="400">
ID</text>
<line x1="25.149" y1="14.894" x2="25.919" y2="14.894" stroke="#000000" stroke-width="0.100" />
<line x1="26.209" y1="13.659" x2="28.402" y2="10.949" stroke="#000000" stroke-width="0.100" />
<ellipse cx="33.349" cy="7.170" rx="1.962" ry="0.900" fill="#FFFFFF" stroke="none"  /><ellipse cx="33.349" cy="7.170" rx="1.962" ry="0.900" fill="none" stroke="#000000"  stroke-width="0.100" /><text x="33.349" y="7.370"  fill="#000000" text-anchor="middle" font-size="0.80" font-family="monospace" font-style="normal" font-weight="400">
Nazwa</text>
<ellipse cx="33.205" cy="9.740" rx="1.962" ry="0.900" fill="#FFFFFF" stroke="none"  /><ellipse cx="33.205" cy="9.740" rx="1.962" ry="0.900" fill="none" stroke="#000000"  stroke-width="0.100" /><text x="33.205" y="9.940"  fill="#000000" text-anchor="middle" font-size="0.80" font-family="monospace" font-style="normal" font-weight="400">
Adres</text>
<ellipse cx="37.545" cy="8.834" rx="1.962" ry="0.900" fill="#FFFFFF" stroke="none"  /><ellipse cx="37.545" cy="8.834" rx="1.962" ry="0.900" fill="none" stroke="#000000"  stroke-width="0.100" /><text x="37.545" y="9.034"  fill="#000000" text-anchor="middle" font-size="0.80" font-family="monospace" font-style="normal" font-weight="400">
Ulica</text>
<ellipse cx="37.794" cy="6.430" rx="2.155" ry="0.900" fill="#FFFFFF" stroke="none"  /><ellipse cx="37.794" cy="6.430" rx="2.155" ry="0.900" fill="none" stroke="#000000"  stroke-width="0.100" /><text x="37.794" y="6.630"  fill="#000000" text-anchor="middle" font-size="0.80" font-family="monospace" font-style="normal" font-weight="400">
Miasto</text>
<line x1="36.674" y1="7.238" x2="34.299" y2="8.951" stroke="#000000" stroke-width="0.100" />
<line x1="35.712" y1="9.216" x2="35.038" y2="9.357" stroke="#000000" stroke-width="0.100" />
<ellipse cx="37.481" cy="10.867" rx="1.962" ry="0.900" fill="#FFFFFF" stroke="none"  /><ellipse cx="37.481" cy="10.867" rx="1.962" ry="0.900" fill="none" stroke="#000000"  stroke-width="0.100" /><text x="37.481" y="11.067"  fill="#000000" text-anchor="middle" font-size="0.80" font-family="monospace" font-style="normal" font-weight="400">
Numer</text>
<line x1="35.731" y1="10.406" x2="34.955" y2="10.201" stroke="#000000" stroke-width="0.100" />
<line x1="32.222" y1="7.933" x2="30.557" y2="9.061" stroke="#000000" stroke-width="0.100" />
<line x1="31.215" y1="9.868" x2="30.690" y2="9.902" stroke="#000000" stroke-width="0.100" />
<polygon fill="#FFFFFF" stroke="none" stroke-width="0.100" points="23.228,7.333 24.806,6.387 26.383,7.333 24.806,8.280 "/>
<polygon fill="none" stroke="#000000" stroke-width="0.100"  points="23.228,7.333 24.806,6.387 26.383,7.333 24.806,8.280 "/>
<text x="24.806" y="7.533"  fill="#000000" text-anchor="middle" font-size="0.80" font-family="monospace" font-style="normal" font-weight="400">
Gra</text>
<ellipse cx="17.266" cy="1.972" rx="1.385" ry="0.900" fill="#FFFFFF" stroke="none"  /><ellipse cx="17.266" cy="1.972" rx="1.385" ry="0.900" fill="none" stroke="#000000"  stroke-width="0.100" /><text x="17.266" y="2.172"  fill="#000000" text-anchor="middle" font-size="0.80" font-family="monospace" font-style="normal" font-weight="400">
ID</text>
<line x1="16.881" y1="2.372" x2="17.651" y2="2.372" stroke="#000000" stroke-width="0.100" />
<line x1="18.385" y1="2.563" x2="19.709" y2="3.262" stroke="#000000" stroke-width="0.100" />
<ellipse cx="21.251" cy="1.872" rx="1.770" ry="0.900" fill="#FFFFFF" stroke="none"  /><ellipse cx="21.251" cy="1.872" rx="1.770" ry="0.900" fill="none" stroke="#000000"  stroke-width="0.100" /><text x="21.251" y="2.072"  fill="#000000" text-anchor="middle" font-size="0.80" font-family="monospace" font-style="normal" font-weight="400">
Imię</text>
<ellipse cx="27.271" cy="2.022" rx="2.540" ry="0.900" fill="#FFFFFF" stroke="none"  /><ellipse cx="27.271" cy="2.022" rx="2.540" ry="0.900" fill="none" stroke="#000000"  stroke-width="0.100" /><text x="27.271" y="2.222"  fill="#000000" text-anchor="middle" font-size="0.80" font-family="monospace" font-style="normal" font-weight="400">
Nazwisko</text>
<line x1="21.355" y1="2.820" x2="21.408" y2="3.297" stroke="#000000" stroke-width="0.100" />
<line x1="25.492" y1="2.698" x2="23.796" y2="3.342" stroke="#000000" stroke-width="0.100" />
<ellipse cx="1.872" cy="4.511" rx="1.385" ry="0.900" fill="#FFFFFF" stroke="none"  /><ellipse cx="1.872" cy="4.511" rx="1.385" ry="0.900" fill="none" stroke="#000000"  stroke-width="0.100" /><text x="1.872" y="4.711"  fill="#000000" text-anchor="middle" font-size="0.80" font-family="monospace" font-style="normal" font-weight="400">
ID</text>
<line x1="1.487" y1="4.911" x2="2.257" y2="4.911" stroke="#000000" stroke-width="0.100" />
<line x1="3.302" y1="4.512" x2="4.073" y2="4.513" stroke="#000000" stroke-width="0.100" />
<ellipse cx="6.860" cy="1.629" rx="1.770" ry="0.900" fill="#FFFFFF" stroke="none"  /><ellipse cx="6.860" cy="1.629" rx="1.770" ry="0.900" fill="none" stroke="#000000"  stroke-width="0.100" /><text x="6.860" y="1.829"  fill="#000000" text-anchor="middle" font-size="0.80" font-family="monospace" font-style="normal" font-weight="400">
Imię</text>
<line x1="7.006" y1="2.554" x2="7.165" y2="3.565" stroke="#000000" stroke-width="0.100" />
<ellipse cx="11.707" cy="1.496" rx="2.540" ry="0.900" fill="#FFFFFF" stroke="none"  /><ellipse cx="11.707" cy="1.496" rx="2.540" ry="0.900" fill="none" stroke="#000000"  stroke-width="0.100" /><text x="11.707" y="1.696"  fill="#000000" text-anchor="middle" font-size="0.80" font-family="monospace" font-style="normal" font-weight="400">
Nazwisko</text>
<line x1="10.504" y1="2.323" x2="8.698" y2="3.565" stroke="#000000" stroke-width="0.100" />
<ellipse cx="2.890" cy="6.977" rx="2.540" ry="0.900" fill="#FFFFFF" stroke="none"  /><ellipse cx="2.890" cy="6.977" rx="2.540" ry="0.900" fill="none" stroke="#000000"  stroke-width="0.100" /><text x="2.890" y="7.177"  fill="#000000" text-anchor="middle" font-size="0.80" font-family="monospace" font-style="normal" font-weight="400">
Licencja</text>
<line x1="4.294" y1="6.196" x2="5.607" y2="5.466" stroke="#000000" stroke-width="0.100" />
<ellipse cx="2.362" cy="1.516" rx="2.155" ry="0.900" fill="#FFFFFF" stroke="none"  /><ellipse cx="2.362" cy="1.516" rx="2.155" ry="0.900" fill="none" stroke="#000000"  stroke-width="0.100" /><text x="2.362" y="1.716"  fill="#000000" text-anchor="middle" font-size="0.80" font-family="monospace" font-style="normal" font-weight="400">
Region</text>
<line x1="3.627" y1="2.282" x2="5.747" y2="3.566" stroke="#000000" stroke-width="0.100" />
<ellipse cx="31.782" cy="12.906" rx="2.348" ry="0.900" fill="#FFFFFF" stroke="none"  /><ellipse cx="31.782" cy="12.906" rx="2.348" ry="0.900" fill="none" stroke="#000000"  stroke-width="0.100" /><text x="31.782" y="13.106"  fill="#000000" text-anchor="middle" font-size="0.80" font-family="monospace" font-style="normal" font-weight="400">
Telefon</text>
<line x1="30.985" y1="12.019" x2="30.023" y2="10.949" stroke="#000000" stroke-width="0.100" />
<ellipse cx="37.192" cy="13.066" rx="2.155" ry="0.900" fill="#FFFFFF" stroke="none"  /><ellipse cx="37.192" cy="13.066" rx="2.155" ry="0.900" fill="none" stroke="#000000"  stroke-width="0.100" /><text x="37.192" y="13.266"  fill="#000000" text-anchor="middle" font-size="0.80" font-family="monospace" font-style="normal" font-weight="400">
Strona</text>
<line x1="35.559" y1="12.442" x2="30.690" y2="10.581" stroke="#000000" stroke-width="0.100" />
<polygon fill="#FFFFFF" stroke="none" stroke-width="0.100" points="27.034,15.860 29.189,14.567 31.344,15.860 29.189,17.153 "/>
<polygon fill="none" stroke="#000000" stroke-width="0.100"  points="27.034,15.860 29.189,14.567 31.344,15.860 29.189,17.153 "/>
<text x="29.189" y="16.060"  fill="#000000" text-anchor="middle" font-size="0.80" font-family="monospace" font-style="normal" font-weight="400">
Gra na</text>
<polygon fill="#FFFFFF" stroke="none" stroke-width="0.100" points="13.014,4.410 15.554,2.886 18.094,4.410 15.554,5.934 "/>
<polygon fill="none" stroke="#000000" stroke-width="0.100"  points="13.014,4.410 15.554,2.886 18.094,4.410 15.554,5.934 "/>
<text x="15.554" y="4.610"  fill="#000000" text-anchor="middle" font-size="0.80" font-family="monospace" font-style="normal" font-weight="400">
Sędziuje</text>
<line x1="10.568" y1="4.474" x2="12.971" y2="4.443" stroke="#000000" stroke-width="0.100" />
<line x1="10.821" y1="4.721" x2="10.815" y2="4.221" stroke="#000000" stroke-width="0.100" />
<line x1="11.071" y1="4.717" x2="11.065" y2="4.217" stroke="#000000" stroke-width="0.100" />
<line x1="29.204" y1="17.203" x2="29.224" y2="18.929" stroke="#000000" stroke-width="0.100" />
<line x1="29.471" y1="18.676" x2="28.971" y2="18.682" stroke="#000000" stroke-width="0.100" />
<line x1="29.468" y1="18.426" x2="28.968" y2="18.432" stroke="#000000" stroke-width="0.100" />
<line x1="29.184" y1="14.517" x2="29.170" y2="10.900" stroke="#000000" stroke-width="0.100" />
<line x1="28.921" y1="11.151" x2="29.421" y2="11.149" stroke="#000000" stroke-width="0.100" />
<line x1="28.922" y1="11.401" x2="29.422" y2="11.399" stroke="#000000" stroke-width="0.100" />
<ellipse cx="7.374" cy="10.504" rx="1.385" ry="0.900" fill="#FFFFFF" stroke="none"  /><ellipse cx="7.374" cy="10.504" rx="1.385" ry="0.900" fill="none" stroke="#000000"  stroke-width="0.100" /><text x="7.374" y="10.704"  fill="#000000" text-anchor="middle" font-size="0.80" font-family="monospace" font-style="normal" font-weight="400">
ID</text>
<line x1="6.989" y1="10.904" x2="7.759" y2="10.904" stroke="#000000" stroke-width="0.100" />
<line x1="8.802" y1="10.409" x2="11.054" y2="10.260" stroke="#000000" stroke-width="0.100" />
<ellipse cx="7.575" cy="8.303" rx="1.770" ry="0.900" fill="#FFFFFF" stroke="none"  /><ellipse cx="7.575" cy="8.303" rx="1.770" ry="0.900" fill="none" stroke="#000000"  stroke-width="0.100" /><text x="7.575" y="8.503"  fill="#000000" text-anchor="middle" font-size="0.80" font-family="monospace" font-style="normal" font-weight="400">
Data</text>
<ellipse cx="10.060" cy="6.594" rx="2.348" ry="0.900" fill="#FFFFFF" stroke="none"  /><ellipse cx="10.060" cy="6.594" rx="2.348" ry="0.900" fill="none" stroke="#000000"  stroke-width="0.100" /><text x="10.060" y="6.794"  fill="#000000" text-anchor="middle" font-size="0.80" font-family="monospace" font-style="normal" font-weight="400">
Godzina</text>
<line x1="10.699" y1="7.503" x2="11.898" y2="9.211" stroke="#000000" stroke-width="0.100" />
<line x1="9.049" y1="8.852" x2="11.063" y2="9.601" stroke="#000000" stroke-width="0.100" />
<ellipse cx="34.539" cy="19.911" rx="1.962" ry="0.900" fill="#FFFFFF" stroke="none"  /><ellipse cx="34.539" cy="19.911" rx="1.962" ry="0.900" fill="none" stroke="#000000"  stroke-width="0.100" /><text x="34.539" y="20.111"  fill="#000000" text-anchor="middle" font-size="0.80" font-family="monospace" font-style="normal" font-weight="400">
Adres</text>
<line x1="32.528" y1="19.899" x2="31.330" y2="19.892" stroke="#000000" stroke-width="0.100" />
<ellipse cx="29.406" cy="22.093" rx="1.385" ry="0.900" fill="#FFFFFF" stroke="none"  /><ellipse cx="29.406" cy="22.093" rx="1.385" ry="0.900" fill="none" stroke="#000000"  stroke-width="0.100" /><text x="29.406" y="22.293"  fill="#000000" text-anchor="middle" font-size="0.80" font-family="monospace" font-style="normal" font-weight="400">
ID</text>
<line x1="29.021" y1="22.493" x2="29.791" y2="22.493" stroke="#000000" stroke-width="0.100" />
<line x1="29.333" y1="21.145" x2="29.308" y2="20.830" stroke="#000000" stroke-width="0.100" />
<ellipse cx="39.001" cy="18.728" rx="2.155" ry="0.900" fill="#FFFFFF" stroke="none"  /><ellipse cx="39.001" cy="18.728" rx="2.155" ry="0.900" fill="none" stroke="#000000"  stroke-width="0.100" /><text x="39.001" y="18.928"  fill="#000000" text-anchor="middle" font-size="0.80" font-family="monospace" font-style="normal" font-weight="400">
Miasto</text>
<ellipse cx="39.118" cy="21.114" rx="1.962" ry="0.900" fill="#FFFFFF" stroke="none"  /><ellipse cx="39.118" cy="21.114" rx="1.962" ry="0.900" fill="none" stroke="#000000"  stroke-width="0.100" /><text x="39.118" y="21.314"  fill="#000000" text-anchor="middle" font-size="0.80" font-family="monospace" font-style="normal" font-weight="400">
Ulica</text>
<ellipse cx="34.492" cy="22.125" rx="1.962" ry="0.900" fill="#FFFFFF" stroke="none"  /><ellipse cx="34.492" cy="22.125" rx="1.962" ry="0.900" fill="none" stroke="#000000"  stroke-width="0.100" /><text x="34.492" y="22.325"  fill="#000000" text-anchor="middle" font-size="0.80" font-family="monospace" font-style="normal" font-weight="400">
Numer</text>
<line x1="37.133" y1="19.223" x2="36.287" y2="19.448" stroke="#000000" stroke-width="0.100" />
<line x1="37.367" y1="20.654" x2="36.290" y2="20.371" stroke="#000000" stroke-width="0.100" />
<line x1="34.512" y1="21.175" x2="34.519" y2="20.861" stroke="#000000" stroke-width="0.100" />
<ellipse cx="33.677" cy="17.731" rx="2.732" ry="0.900" fill="#FFFFFF" stroke="none"  /><ellipse cx="33.677" cy="17.731" rx="2.732" ry="0.900" fill="none" stroke="#000000"  stroke-width="0.100" /><text x="33.677" y="17.931"  fill="#000000" text-anchor="middle" font-size="0.80" font-family="monospace" font-style="normal" font-weight="400">
Pojemnosc</text>
<line x1="32.096" y1="18.496" x2="31.198" y2="18.930" stroke="#000000" stroke-width="0.100" />
<rect x="33.367" y="2.975" width="3.710" height="1.800" fill="#FFFFFF" stroke="none" stroke-width="0"/>
<rect x="33.367" y="2.975" width="3.710" height="1.800" fill="none" stroke="#000000" stroke-width="0.100" />
<text x="35.222" y="4.075"  fill="#000000" text-anchor="middle" font-size="0.80" font-family="monospace" font-style="normal" font-weight="400">
Trener</text>
<ellipse cx="32.986" cy="1.029" rx="1.385" ry="0.900" fill="#FFFFFF" stroke="none"  /><ellipse cx="32.986" cy="1.029" rx="1.385" ry="0.900" fill="none" stroke="#000000"  stroke-width="0.100" /><text x="32.986" y="1.229"  fill="#000000" text-anchor="middle" font-size="0.80" font-family="monospace" font-style="normal" font-weight="400">
ID</text>
<line x1="32.601" y1="1.429" x2="33.371" y2="1.429" stroke="#000000" stroke-width="0.100" />
<line x1="33.647" y1="1.870" x2="34.477" y2="2.927" stroke="#000000" stroke-width="0.100" />
<ellipse cx="36.585" cy="1.224" rx="1.770" ry="0.900" fill="#FFFFFF" stroke="none"  /><ellipse cx="36.585" cy="1.224" rx="1.770" ry="0.900" fill="none" stroke="#000000"  stroke-width="0.100" /><text x="36.585" y="1.424"  fill="#000000" text-anchor="middle" font-size="0.80" font-family="monospace" font-style="normal" font-weight="400">
Imię</text>
<ellipse cx="41.856" cy="1.100" rx="2.540" ry="0.900" fill="#FFFFFF" stroke="none"  /><ellipse cx="41.856" cy="1.100" rx="2.540" ry="0.900" fill="none" stroke="#000000"  stroke-width="0.100" /><text x="41.856" y="1.300"  fill="#000000" text-anchor="middle" font-size="0.80" font-family="monospace" font-style="normal" font-weight="400">
Nazwisko</text>
<ellipse cx="41.181" cy="3.781" rx="2.540" ry="0.900" fill="#FFFFFF" stroke="none"  /><ellipse cx="41.181" cy="3.781" rx="2.540" ry="0.900" fill="none" stroke="#000000"  stroke-width="0.100" /><text x="41.181" y="3.981"  fill="#000000" text-anchor="middle" font-size="0.80" font-family="monospace" font-style="normal" font-weight="400">
Licencja</text>
<line x1="36.114" y1="2.140" x2="35.710" y2="2.925" stroke="#000000" stroke-width="0.100" />
<line x1="40.168" y1="1.806" x2="37.127" y2="3.078" stroke="#000000" stroke-width="0.100" />
<polygon fill="#FFFFFF" stroke="none" stroke-width="0.100" points="26.444,6.094 28.983,4.570 31.523,6.094 28.983,7.618 "/>
<polygon fill="none" stroke="#000000" stroke-width="0.100"  points="26.444,6.094 28.983,4.570 31.523,6.094 28.983,7.618 "/>
<text x="28.983" y="6.294"  fill="#000000" text-anchor="middle" font-size="0.80" font-family="monospace" font-style="normal" font-weight="400">
Prowadzi</text>
<line x1="29.059" y1="7.668" x2="29.125" y2="9.050" stroke="#000000" stroke-width="0.100" />
<line x1="29.362" y1="8.788" x2="28.863" y2="8.812" stroke="#000000" stroke-width="0.100" />
<line x1="29.350" y1="8.538" x2="28.851" y2="8.562" stroke="#000000" stroke-width="0.100" />
<line x1="38.593" y1="3.822" x2="37.126" y2="3.845" stroke="#000000" stroke-width="0.100" />
<polyline fill="none" stroke="#000000" stroke-width="0.100"  points="31.574,6.094 31.736,6.094 31.736,3.875 33.317,3.875 "/>
<line x1="33.067" y1="3.625" x2="33.067" y2="4.125" stroke="#000000" stroke-width="0.100" />
<line x1="32.817" y1="3.625" x2="32.817" y2="4.125" stroke="#000000" stroke-width="0.100" />
<polygon fill="#FFFFFF" stroke="none" stroke-width="0.100" points="17.348,12.707 20.080,11.067 22.813,12.707 20.080,14.346 "/>
<polygon fill="none" stroke="#000000" stroke-width="0.100"  points="17.348,12.707 20.080,11.067 22.813,12.707 20.080,14.346 "/>
<text x="20.080" y="12.907"  fill="#000000" text-anchor="middle" font-size="0.80" font-family="monospace" font-style="normal" font-weight="400">
Gospodarz</text>
<polygon fill="#FFFFFF" stroke="none" stroke-width="0.100" points="18.335,9.394 20.105,8.332 21.875,9.394 20.105,10.456 "/>
<polygon fill="none" stroke="#000000" stroke-width="0.100"  points="18.335,9.394 20.105,8.332 21.875,9.394 20.105,10.456 "/>
<text x="20.105" y="9.594"  fill="#000000" text-anchor="middle" font-size="0.80" font-family="monospace" font-style="normal" font-weight="400">
Gość</text>
<ellipse cx="20.048" cy="6.528" rx="2.155" ry="0.900" fill="#FFFFFF" stroke="none"  /><ellipse cx="20.048" cy="6.528" rx="2.155" ry="0.900" fill="none" stroke="#000000"  stroke-width="0.100" /><text x="20.048" y="6.728"  fill="#000000" text-anchor="middle" font-size="0.80" font-family="monospace" font-style="normal" font-weight="400">
Punkty</text>
<ellipse cx="20.093" cy="16.418" rx="2.155" ry="0.900" fill="#FFFFFF" stroke="none"  /><ellipse cx="20.093" cy="16.418" rx="2.155" ry="0.900" fill="none" stroke="#000000"  stroke-width="0.100" /><text x="20.093" y="16.618"  fill="#000000" text-anchor="middle" font-size="0.80" font-family="monospace" font-style="normal" font-weight="400">
Punkty</text>
<line x1="20.090" y1="15.468" x2="20.086" y2="14.396" stroke="#000000" stroke-width="0.100" />
<line x1="20.067" y1="7.478" x2="20.083" y2="8.282" stroke="#000000" stroke-width="0.100" />
<path stroke="#000000" fill="none" stroke-width="0.100"  d="M 21.924,9.394 C 23.973,9.394 25.736,9.715 27.667,9.875 "/>
<line x1="27.438" y1="9.605" x2="27.397" y2="10.104" stroke="#000000" stroke-width="0.100" />
<line x1="27.189" y1="9.585" x2="27.148" y2="10.083" stroke="#000000" stroke-width="0.100" />
<path stroke="#000000" fill="none" stroke-width="0.100"  d="M 26.429,7.339 C 28.627,7.346 27.451,6.991 28.627,9.050 "/>
<line x1="28.720" y1="8.709" x2="28.286" y2="8.957" stroke="#000000" stroke-width="0.100" />
<line x1="28.596" y1="8.492" x2="28.162" y2="8.740" stroke="#000000" stroke-width="0.100" />
<path stroke="#000000" fill="none" stroke-width="0.100"  d="M 22.861,12.707 C 26.434,12.707 25.045,12.698 27.719,10.949 "/>
<line x1="27.373" y1="10.877" x2="27.646" y2="11.295" stroke="#000000" stroke-width="0.100" />
<line x1="27.163" y1="11.014" x2="27.437" y2="11.432" stroke="#000000" stroke-width="0.100" />
<path stroke="#000000" fill="none" stroke-width="0.100"  d="M 12.381,11.110 C 11.936,13.417 14.852,12.707 17.298,12.707 "/>
<line x1="12.286" y1="11.601" x2="12.626" y2="11.157" stroke="#000000" stroke-width="0.100" />
<line x1="12.286" y1="11.601" x2="12.135" y2="11.063" stroke="#000000" stroke-width="0.100" />
<line x1="12.532" y1="11.648" x2="12.041" y2="11.553" stroke="#000000" stroke-width="0.100" />
<path stroke="#000000" fill="none" stroke-width="0.100"  d="M 13.028,11.110 C 14.032,13.169 14.792,9.394 18.291,9.394 "/>
<line x1="13.247" y1="11.559" x2="13.252" y2="11.000" stroke="#000000" stroke-width="0.100" />
<line x1="13.247" y1="11.559" x2="12.803" y2="11.220" stroke="#000000" stroke-width="0.100" />
<line x1="13.471" y1="11.450" x2="13.022" y2="11.669" stroke="#000000" stroke-width="0.100" />
<path stroke="#000000" fill="none" stroke-width="0.100"  d="M 23.799,4.154 C 27.350,4.066 24.926,5.814 24.885,6.338 "/>
<line x1="24.299" y1="4.142" x2="23.793" y2="3.904" stroke="#000000" stroke-width="0.100" />
<line x1="24.299" y1="4.142" x2="23.805" y2="4.404" stroke="#000000" stroke-width="0.100" />
<line x1="24.292" y1="3.892" x2="24.305" y2="4.392" stroke="#000000" stroke-width="0.100" />
<polyline fill="none" stroke="#000000" stroke-width="0.100"  points="12.564,9.210 12.564,7.597 15.554,7.597 15.554,5.984 "/>
<line x1="12.564" y1="8.710" x2="12.314" y2="9.210" stroke="#000000" stroke-width="0.100" />
<line x1="12.564" y1="8.710" x2="12.814" y2="9.210" stroke="#000000" stroke-width="0.100" />
<line x1="12.314" y1="8.710" x2="12.814" y2="8.710" stroke="#000000" stroke-width="0.100" />
</svg>